<svg
  version="1.1"
  xmlns="http://www.w3.org/2000/svg"
  xmlns:xlink="http://www.w3.org/1999/xlink"
  x="0px"
  y="0px"
  width="400px"
  height="400px"
  viewBox="0 0 400 400"
  style="enable-background:new 0 0 400 400;"
  xml:space="preserve">
  <style type="text/css">
    .white {
      fill: #FFFFFF;
    }
  </style>
  <rect class="none" width="400" height="400"/>
  <path
    class="white"
    d="M158.8,205.6h-44v-44h44V205.6z M223,161.7h-44v44h44V161.7z M287.2,161.7h-44v44h44V161.7z M351.4,161.7h-44
	v44h44V161.7z M158,231.2h-44v44h44V231.2z M222.5,231.2h-44v44h44V231.2z M286.9,231.2h-44v44h44V231.2z M351.4,231.2h-44v44h44
	V231.2z M114.3,344.7h44v-44h-44V344.7z M179,344.7h44v-44h-44V344.7z M93.5,231.2h-44v44h44V231.2z M93.5,300.8h-44v44h44V300.8z
	 M386.5,52.6v317.3c0,2.9-2.3,5.2-5.2,5.2H20.8c-2.9,0-5.2-2.3-5.2-5.2V52.6c0-2.9,2.3-5.2,5.2-5.2h27.8V28.4c0-1.5,1.2-2.6,2.6-2.6
	s2.6,1.2,2.6,2.6v18.9h22V28.4c0-1.5,1.2-2.6,2.6-2.6c1.5,0,2.6,1.2,2.6,2.6v18.9h22V28.4c0-1.5,1.2-2.6,2.6-2.6
	c1.5,0,2.6,1.2,2.6,2.6v18.9h22V28.4c0-1.5,1.2-2.6,2.6-2.6c1.5,0,2.6,1.2,2.6,2.6v18.9h22V28.4c0-1.5,1.2-2.6,2.6-2.6
	s2.6,1.2,2.6,2.6v18.9h22V28.4c0-1.5,1.2-2.6,2.6-2.6s2.6,1.2,2.6,2.6v18.9h22V28.4c0-1.5,1.2-2.6,2.6-2.6s2.6,1.2,2.6,2.6v18.9h22
	V28.4c0-1.5,1.2-2.6,2.6-2.6c1.5,0,2.6,1.2,2.6,2.6v18.9h22V28.4c0-1.5,1.2-2.6,2.6-2.6c1.5,0,2.6,1.2,2.6,2.6v18.9h22V28.4
	c0-1.5,1.2-2.6,2.6-2.6c1.5,0,2.6,1.2,2.6,2.6v18.9h22V28.4c0-1.5,1.2-2.6,2.6-2.6s2.6,1.2,2.6,2.6v18.9h22V28.4
	c0-1.5,1.2-2.6,2.6-2.6c1.5,0,2.6,1.2,2.6,2.6v18.9h27.8C384.1,47.3,386.5,49.7,386.5,52.6z M376,132.8H26v231.8h350V132.8z"/>
</svg>
