<svg
  version="1.1"
  xmlns="http://www.w3.org/2000/svg"
  xmlns:xlink="http://www.w3.org/1999/xlink"
  x="0px"
  y="0px"
  width="400px"
  height="400px"
  viewBox="0 0 400 400"
  style="enable-background:new 0 0 400 400;"
  xml:space="preserve">
  <style type="text/css">
    .white {
      fill: #FFFFFF;
    }
  </style>
  <rect class="none" width="400" height="400"/>
  <path
    class="white"
    d="M297.1,289.2h-192c-3.9,0-7.1,3.1-7.1,7c0,3.9,3.2,7.1,7.1,7.1h192c3.9,0,7.1-3.2,7.1-7.1
	C304.2,292.3,301,289.2,297.1,289.2z M297.1,321.4h-192c-3.9,0-7.1,3.2-7.1,7.1s3.2,7,7.1,7h192c3.9,0,7.1-3.1,7.1-7
	S301,321.4,297.1,321.4z M297.1,256.9h-192c-3.9,0-7.1,3.2-7.1,7c0,3.9,3.2,7.1,7.1,7.1h192c3.9,0,7.1-3.2,7.1-7.1
	C304.2,260.2,301,256.9,297.1,256.9z M105.1,109.9h98.3c3.9,0,7.1-3.2,7.1-7.1s-3.2-7-7.1-7h-98.3c-3.9,0-7.1,3.1-7.1,7
	S101.2,109.9,105.1,109.9z M297.1,160.2h-192c-3.9,0-7.1,3.2-7.1,7.1c0,3.8,3.2,7,7.1,7h192c3.9,0,7.1-3.2,7.1-7
	C304.2,163.4,301,160.2,297.1,160.2z M338,99l-64.5-69.8c-1.3-1.5-3.2-2.3-5.2-2.3H69.4c-3.9,0-7.1,3.2-7.1,7.1v337.1
	c0,3.9,3.2,7.1,7.1,7.1h263.4c3.9,0,7.1-3.2,7.1-7.1V103.9C339.9,102.1,339.2,100.3,338,99z M271.2,67.8c0,0,0-20.1,13.7-5.3
	l23.9,25.8c0,0,6.8,7.4-3.2,7.4h-34.4V67.8z M325.7,323.9c0,0,0,40.2-40.2,40.2H116.7c0,0-40.2,0-40.2-40.2V81.3
	c0,0,0-40.2,40.2-40.2h120.2c0,0,20.1,0,20.1,20.1v48.7h34.4c0,0,34.4,0,34.4,40.2V323.9z M297.1,127.9h-192c-3.9,0-7.1,3.2-7.1,7.1
	c0,3.9,3.2,7,7.1,7h192c3.9,0,7.1-3.1,7.1-7C304.2,131.1,301,127.9,297.1,127.9z M297.1,224.6h-192c-3.9,0-7.1,3.2-7.1,7.1
	c0,3.9,3.2,7,7.1,7h192c3.9,0,7.1-3.1,7.1-7C304.2,227.9,301,224.6,297.1,224.6z M297.1,192.5h-192c-3.9,0-7.1,3.1-7.1,7
	c0,3.9,3.2,7.1,7.1,7.1h192c3.9,0,7.1-3.2,7.1-7.1C304.2,195.6,301,192.5,297.1,192.5z"/>
</svg>
