<svg
  version="1.1"
  xmlns="http://www.w3.org/2000/svg"
  xmlns:xlink="http://www.w3.org/1999/xlink"
  x="0px"
  y="0px"
  width="800px"
  height="400px"
  viewBox="0 0 800 400"
  style="enable-background:new 0 0 800 400;"
  xml:space="preserve">
  <style type="text/css">
    .epsilon {
      fill: #5B5D62;
    }
  </style>
  <rect class="none" width="800" height="400"/>
  <g>
    <path
      id="hat"
      class="epsilon"
      d="M773.978,114.056c-0.9-2.8-3.8-4-5.4-4.6c-1.5-0.6-86.8-27.7-130.1-41.6c-4.8-1.5-9.5-1.5-14.3,0.1
		c-38.7,12.4-77.3,24.7-116,37c-5.2,1.7-10.4,3.4-15.5,5c-2.2,0.7-3.9,1.9-3.9,4.3c0.1,2.4,1.8,3.6,4,4.2c0.3,0.1,0.6,0.2,0.8,0.3
		c43.3,13.8,86.6,27.6,129.9,41.4c5.4,1.7,10.6,1.7,16,0c25.3-8.2,50.7-16.2,76.1-24.3c6.8-2.2,13.5-4.3,20.8-6.6l0,0l0,0
		c0,10.9,0.1,21.1-0.1,31.3c0,0.7-0.2,1.4-0.5,2.1c-0.3,0.7-0.7,1.3-1.2,1.8c-1.1,1.1-1.9,2.4-2.5,3.7c-1.2,2.9-1,6.2,1.3,8.4
		c2.9,2.8,3.1,5.9,3.5,9.2c0.2,2.1,0.2,4.2,0.8,6.2c1.6,4.9,3.4,9.9,5.5,14.6c0.6,1.3,2.9,2.8,4.2,2.6c6.6-1.1,12.1-4.2,16.3-9.5
		c0.2-0.3,0.4-0.5,0.5-0.8c0.9-1.7,0.1-3.1-1.9-4c-1.3-0.6-2.6-0.9-3.9-1.4c-5.7-2.2-9.6-6.2-11.8-11.9c-0.4-0.9-0.5-1.7-0.2-2.5
		c0.2-0.5,0.5-0.9,1-1.4c1-1,1.7-2,2.2-3.1c1.4-3.3,0.6-6.9-2.1-9.9c-0.9-1-1.6-2.5-1.6-3.8c-0.1-10.5,0-21-0.1-31.6
		c0-0.1,0-0.1,0-0.2c0.1-1.2,0.7-2.4,1.9-3.5c0.3-0.1,0.7-0.3,1.1-0.4c7.4-2.2,14.7-4.6,22.1-7
		C772.678,117.656,774.678,116.156,773.978,114.056z M726.878,223.456c-2.7-2.7-5.8-4.6-9.8-4.3c-3.7,0.3-7.5,0.8-11.2,1.4
		c-14.4,2.5-28.9,5-43.3,7.6c-5.2,0.9-10.4,1.6-15.6,2c-1.7,0.1-3.4,0.2-5,0.3c-3,0.2-6,0.2-9.1,0.2c-4.9-0.1-9.7-0.2-15.2-0.6
		c-6.2-0.5-12.5-1.3-18.7-2.5c-14.9-2.7-29.9-5.1-44.8-7.8c-11.3-2-15.5,1.1-20.7,10.8c-1,1.9-1.8,4-2.4,6.1
		c-3.6,11.8-3.8,23.8-1.3,35.9c1.2,6,3.3,11.7,7.1,16.5c3,3.7,6.6,6.6,11.7,5.9c12.3-1.9,24.6-4,36.9-6.1c7.7-1.3,15.4-2.5,23.8-3.9
		h0.1l0,0c-1.1,1.7-1.6,2.7-2.3,3.7c-7.1,10.1-15.3,19.2-24.7,27.2c-0.7,0.6-1,1.7-1.5,2.6c0.9,0.2,1.8,0.7,2.7,0.6
		c4.4-0.3,8.7-0.5,13-1.1c2.5-0.3,3.8,0.3,4.7,2.7c1.3,3.3,2.8,6.5,4.4,9.8c0.5,1,1.4,1.8,2,2.7c0.8-0.8,1.9-1.5,2.4-2.4
		c5.4-10,10.9-20,16-30.2c2.6-5.2,4.4-10.8,6.5-16.2c0.1,0.1,0.3,0.2,0.4,0.4c0.3,0.7,0.6,1.5,0.8,2.2c5.4,15.7,13.1,30.4,21.8,44.5
		c0.4,0.7,1.2,1.2,1.9,1.8c0.6-0.7,1.5-1.3,1.9-2.1c1.7-3.7,3.5-7.4,5-11.1c0.7-1.8,1.8-2.3,3.7-2.1c4.5,0.5,9.1,0.8,13.6,1.1
		c0.9,0.1,1.9-0.5,2.9-0.8c-0.5-0.8-0.8-1.7-1.5-2.4c-5.3-5.3-10.9-10.4-16-16c-2.5-2.8-8.2-10.5-10.1-14.7
		c5.4,0.9,10.9,1.7,16.3,2.6c14,2.3,27.9,4.6,41.9,7c4.7,0.8,8.6-0.5,11.5-3.9c2.6-3.2,5.1-6.7,6.6-10.5c4.8-12,4.9-24.6,2.7-37.2
		C734.678,235.856,732.178,228.956,726.878,223.456z M560.278,187.956c3.4,2.7,7,5.2,10.9,7.1c14.3,6.8,29.6,10.1,45,12.5
		c5.9,0.9,12.1,1.9,18,1.5c8.5-0.6,16.9-2.2,25.2-3.9c12.6-2.6,25-6,36.4-12.3c8-4.4,12.6-10.3,11.7-20.1c-0.7-7.5-0.1-15-0.1-22.9
		c-1.4,0.4-2.4,0.7-3.4,1c-20.7,6.6-41.3,13.1-61.9,19.8c-7,2.3-14,2.4-21,0.1c-9.6-3.1-19.2-6.2-28.8-9.2
		c-12.2-3.9-24.3-7.7-37-11.8c0,9.3,0.1,18.1,0,26.9C555.278,181.356,556.778,185.256,560.278,187.956z"/>
    <path
      id="tenkay"
      class="epsilon"
      d="M337.778,180.856l55.9-54.2h-5.7l-88.9,86.9v-86.9h-4v128.6h4v-36.6l36-35.1l55.7,71.7h5
		L337.778,180.856z M217.978,124.456c-33.4,0-52.6,31.2-52.6,66.3v0.4c0,35.3,19.1,66.3,52.6,66.3s52.6-31.2,52.6-66.3v-0.4
		C270.478,155.456,251.378,124.456,217.978,124.456z M266.478,191.356c0,32.9-17.3,62.5-48.3,62.5c-31.1,0-48.7-30.1-48.7-62.8v-0.4
		c0-32.9,17.3-62.5,48.3-62.5c31.1,0,48.7,30.1,48.7,62.8V191.356z M72.578,188.356v-58.3c14.9,0.7,25,6.1,34.9,14.7l2.6-2.9
		c-10.3-9-22.1-14.3-37.5-15.1v-10.8h-3.5v10.8c-23.3,0-38.6,14.3-38.6,31.8v0.4c0,18,13.2,26.5,38.6,32.2v60.6
		c-15.3-1.3-29.4-8.3-40.4-19.1l-2.8,2.8c11.4,11,26.8,18.4,43.2,19.7v18.2h3.5v-18h1.7c24.4,0,39.9-14.3,39.9-33.3v-0.4
		C114.178,202.856,99.778,194.456,72.578,188.356z M69.078,187.256c-23.7-5.7-34.5-12.5-34.5-28.5v-0.4c0-15.4,13.4-28.3,34.5-28.3
		V187.256z M110.078,222.156c0,16.7-14,29.8-35.7,29.8h-1.8v-59.9c25,6.1,37.5,12.5,37.5,29.8V222.156z M126.678,137.656l1.7,3.5
		l24.1-10.8v125h3.9v-129.6h-3.3L126.678,137.656z"/>
    <polygon
      id="arrow"
      class="epsilon"
      points="500.178,191.756 474.778,166.456 474.778,182.356 415.278,182.356 415.278,201.756
		474.778,201.756 474.778,217.156 	"/>
  </g>
</svg>
