<svg
  version="1.1"
  xmlns="http://www.w3.org/2000/svg"
  xmlns:xlink="http://www.w3.org/1999/xlink"
  x="0px"
  y="0px"
  width="400px"
  height="400px"
  viewBox="0 0 400 400">
  <style type="text/css">
    .white {
      fill: #FFFFFF;
    }
  </style>
  <rect class="none" width="400" height="400"/>
  <path
    class="white"
    d="M33.2,241.2v93.6c0,12.3,10,22.3,22.2,22.3h8.2v-13.7h-8.2c-4.8,0-8.7-3.8-8.7-8.6v-93.6c0-4.7,3.9-8.6,8.7-8.6
	h8.2V219h-8.2C43.2,219,33.2,228.9,33.2,241.2z M314,206.2c-7.2,0-13,5.8-13,13v137.7c0,7.2,5.8,13,13,13s13-5.8,13-13V219.1
	C326.9,211.9,321.1,206.2,314,206.2z M200.1,27.3C94,27.3,7.7,113.6,7.7,219.6v67.2c0,3.8,3,6.7,6.8,6.7c3.8,0,6.8-2.9,6.8-6.7
	v-67.2c0-98.5,80.2-178.7,178.8-178.7s178.8,80.2,178.8,178.7l-0.2,67.2c0,3.7,3,6.7,6.8,6.7h0c3.7,0,6.8-2.9,6.8-6.7l0.2-67.1
	C392.4,113.6,306.1,27.3,200.1,27.3z M344.1,219h-8.2v13.6h8.2c4.8,0,8.7,3.9,8.7,8.6v93.6c0,4.8-3.9,8.6-8.7,8.6h-8.2v13.7h8.2
	c12.3,0,22.2-10,22.2-22.3v-93.6C366.3,228.9,356.3,219,344.1,219z M85.6,206.2c-7.2,0-13,5.8-13,13v137.7c0,7.2,5.8,13,13,13
	s13-5.8,13-13V219.1C98.5,211.9,92.7,206.2,85.6,206.2z"/>
</svg>
