<?xml version="1.0" encoding="utf-8"?>
<!-- Generator: Adobe Illustrator 19.2.1, SVG Export Plug-In . SVG Version: 6.00 Build 0)  -->
<svg version="1.1" id="Layer_1" xmlns="http://www.w3.org/2000/svg" xmlns:xlink="http://www.w3.org/1999/xlink" x="0px" y="0px"
	 viewBox="0 0 193.7 18.1" style="enable-background:new 0 0 193.7 18.1;" xml:space="preserve">
<style type="text/css">
	.st0{fill:#FFFFFF;}
</style>
<g>
	<path class="st0" d="M187.9,9.3c0-4.2-1.9-6.7-5.4-6.7s-5.4,2.5-5.4,6.7c0,4.3,1.9,6.7,5.4,6.7C186,16,187.9,13.6,187.9,9.3
		 M192.1,9.3c0,5.2-4,8.9-9.6,8.9c-5.6,0-9.6-3.7-9.6-8.9c0-5.2,4-8.9,9.6-8.9C188.1,0.4,192.1,4.1,192.1,9.3 M163.4,10.1
		c0,0.5,0.1,0.8,0.3,1.2h3.1v4.2c-1,0.4-2,0.6-3,0.6c-3.7,0-5.6-2.5-5.6-6.7c0-4.3,1.9-6.7,5.4-6.7c2.3,0,3.7,1.1,4.5,3l0.3,0.7h1.9
		V1.9c-2.3-1-4.4-1.5-6.8-1.5c-5.7,0-9.5,3.5-9.5,8.9c0,5.4,3.7,8.9,9.5,8.9c2.3,0,4.7-0.6,7.2-1.8V8.9h-6.9
		C163.5,9.3,163.4,9.6,163.4,10.1 M148,5.7c0-1.8-1.2-2.7-3.5-2.7h-3v5.4h3C146.8,8.4,148,7.4,148,5.7 M127.8,10.6l-2.5-6.4
		l-2.5,6.4H127.8z M153,15.8c0.2,0.3,0.2,0.6,0.2,1c0,0.4-0.1,0.7-0.2,1c-0.6,0.1-1.3,0.1-2,0.1c-2.5,0-3.7-1-4-3.2l-0.1-0.8
		c-0.3-2.4-1.2-3.4-4-3.4h-1.4v5.1h2.4v2.1h-16.2v-2.1h2.1l-1.2-3h-6.7l-1.2,3h2.2v2.1h-6.8v-2.1h1.8l6.3-14.7h3.4l6.4,14.7h3.6V3
		h-2.2V0.9h10.4c3.7,0,6.1,1.7,6.1,4.4c0,2.7-2.4,4.2-4.7,4.2v0.1c2.3,0.2,3.3,1.4,3.5,3.3l0.1,0.9c0.2,1.4,0.5,2,1.7,2
		C152.7,15.9,152.8,15.9,153,15.8 M113.7,3c1.7,0,2.3,0.7,2.9,2.7l0.2,0.6h1.9V0.9h-15.5V3h2.2v12.6h-2.2v2.1h8.6v-2.1h-2.6v-4.9
		h5.3c0.2-0.4,0.3-0.7,0.3-1.2c0-0.5-0.1-0.7-0.3-1.2h-5.3V3H113.7z M88.9,7.9l-3.3-0.7c-1.9-0.4-2.7-1.1-2.7-2.3
		c0-1.4,1.2-2.3,3.6-2.3c2.4,0,3.8,0.8,4.3,2.7L91,6.1h1.9V1.9c-2.1-1-4.3-1.5-6.5-1.5c-4.4,0-7.2,2-7.2,5.1c0,2.4,1.6,4.2,4.8,4.9
		l3.3,0.7c2.1,0.4,2.9,1.2,2.9,2.5c0,1.6-1.3,2.4-3.8,2.4c-2.9,0-4.3-1.1-5-3.1l-0.3-1h-1.9v4.7c2.3,1.1,4.6,1.6,7.6,1.6
		c4.3,0,7.2-2,7.2-5.2C93.9,10.4,92.1,8.6,88.9,7.9 M75.3,12.8c-0.5,2.1-1.2,2.8-2.9,2.8h-3.6V3h2.4V0.9h-8.5V3h2.2v12.6h-2.2v2.1
		h14.6V12h-1.9L75.3,12.8z M59.1,12.8c-0.5,2.1-1.2,2.8-2.9,2.8h-3.6V3H55V0.9h-8.5V3h2.2v12.6h-2.2v2.1h14.6V12h-1.9L59.1,12.8z
		 M42.8,12h1.9v5.7H29.1v-2.1h2.2V3h-3.6l-4.5,14.7h-3.6L16,5.5l-3.8,12.2H8.7L4.1,3H2.1V0.9h8.4V3H8.1l3,10.1l3.6-12.2h3.7
		l3.7,12.2L25,3h-2.5V0.9h21.9v5.4h-1.9l-0.2-0.6c-0.6-2-1.2-2.7-2.9-2.7h-4.3v5.1h5.2c0.2,0.4,0.3,0.7,0.3,1.2
		c0,0.5-0.1,0.8-0.3,1.2h-5.2v5.2h4.5c1.7,0,2.4-0.7,2.9-2.8L42.8,12z"/>
</g>
</svg>
